<mxfile modified="2023-06-02T16:35:14.007Z" host="app.diagrams.net" agent="Mozilla/5.0 (Windows NT 10.0; Win64; x64) AppleWebKit/537.36 (KHTML, like Gecko) Chrome/113.0.0.0 Safari/537.36" etag="ZFFrLhYSKzhvBBcJt0Yh" version="21.3.7" type="device">
  <diagram id="Ht1M8jgEwFfnCIfOTk4-" name="Page-1">
    <mxGraphModel dx="1687" dy="976" grid="1" gridSize="10" guides="1" tooltips="1" connect="1" arrows="1" fold="1" page="1" pageScale="1" pageWidth="1169" pageHeight="827" math="0" shadow="0">
      <root>
        <mxCell id="0" />
        <mxCell id="1" parent="0" />
        <mxCell id="AhbAG74jAUV55RDadlkY-10" style="edgeStyle=orthogonalEdgeStyle;rounded=0;orthogonalLoop=1;jettySize=auto;html=1;" edge="1" parent="1" source="AhbAG74jAUV55RDadlkY-1" target="AhbAG74jAUV55RDadlkY-3">
          <mxGeometry relative="1" as="geometry" />
        </mxCell>
        <mxCell id="AhbAG74jAUV55RDadlkY-12" style="edgeStyle=orthogonalEdgeStyle;rounded=0;orthogonalLoop=1;jettySize=auto;html=1;" edge="1" parent="1" source="AhbAG74jAUV55RDadlkY-1" target="AhbAG74jAUV55RDadlkY-2">
          <mxGeometry relative="1" as="geometry" />
        </mxCell>
        <mxCell id="AhbAG74jAUV55RDadlkY-1" value="API Gateway" style="outlineConnect=0;dashed=0;verticalLabelPosition=bottom;verticalAlign=top;align=center;html=1;shape=mxgraph.aws3.api_gateway;fillColor=#D9A741;gradientColor=none;" vertex="1" parent="1">
          <mxGeometry x="240" y="380" width="76.5" height="93" as="geometry" />
        </mxCell>
        <mxCell id="AhbAG74jAUV55RDadlkY-13" style="edgeStyle=orthogonalEdgeStyle;rounded=0;orthogonalLoop=1;jettySize=auto;html=1;entryX=0.5;entryY=1;entryDx=0;entryDy=0;entryPerimeter=0;" edge="1" parent="1" source="AhbAG74jAUV55RDadlkY-2" target="AhbAG74jAUV55RDadlkY-6">
          <mxGeometry relative="1" as="geometry" />
        </mxCell>
        <mxCell id="AhbAG74jAUV55RDadlkY-15" style="edgeStyle=orthogonalEdgeStyle;rounded=0;orthogonalLoop=1;jettySize=auto;html=1;entryX=0.5;entryY=0;entryDx=0;entryDy=0;entryPerimeter=0;" edge="1" parent="1" source="AhbAG74jAUV55RDadlkY-2" target="AhbAG74jAUV55RDadlkY-4">
          <mxGeometry relative="1" as="geometry" />
        </mxCell>
        <mxCell id="AhbAG74jAUV55RDadlkY-16" style="edgeStyle=orthogonalEdgeStyle;rounded=0;orthogonalLoop=1;jettySize=auto;html=1;entryX=0.5;entryY=0;entryDx=0;entryDy=0;entryPerimeter=0;" edge="1" parent="1" source="AhbAG74jAUV55RDadlkY-2">
          <mxGeometry relative="1" as="geometry">
            <mxPoint x="679" y="591.5" as="targetPoint" />
          </mxGeometry>
        </mxCell>
        <mxCell id="AhbAG74jAUV55RDadlkY-2" value="Lambda&lt;br&gt;" style="outlineConnect=0;dashed=0;verticalLabelPosition=bottom;verticalAlign=top;align=center;html=1;shape=mxgraph.aws3.lambda;fillColor=#F58534;gradientColor=none;" vertex="1" parent="1">
          <mxGeometry x="430" y="380" width="76.5" height="93" as="geometry" />
        </mxCell>
        <mxCell id="AhbAG74jAUV55RDadlkY-11" style="edgeStyle=orthogonalEdgeStyle;rounded=0;orthogonalLoop=1;jettySize=auto;html=1;entryX=0.5;entryY=0;entryDx=0;entryDy=0;entryPerimeter=0;" edge="1" parent="1" source="AhbAG74jAUV55RDadlkY-3" target="AhbAG74jAUV55RDadlkY-1">
          <mxGeometry relative="1" as="geometry" />
        </mxCell>
        <mxCell id="AhbAG74jAUV55RDadlkY-3" value="Cognito&lt;br&gt;" style="outlineConnect=0;dashed=0;verticalLabelPosition=bottom;verticalAlign=top;align=center;html=1;shape=mxgraph.aws3.cognito;fillColor=#AD688B;gradientColor=none;" vertex="1" parent="1">
          <mxGeometry x="240" y="210" width="76.5" height="93" as="geometry" />
        </mxCell>
        <mxCell id="AhbAG74jAUV55RDadlkY-4" value="DynamoDB" style="outlineConnect=0;dashed=0;verticalLabelPosition=bottom;verticalAlign=top;align=center;html=1;shape=mxgraph.aws3.dynamo_db;fillColor=#2E73B8;gradientColor=none;" vertex="1" parent="1">
          <mxGeometry x="432.25" y="590" width="72" height="80" as="geometry" />
        </mxCell>
        <mxCell id="AhbAG74jAUV55RDadlkY-17" style="edgeStyle=orthogonalEdgeStyle;rounded=0;orthogonalLoop=1;jettySize=auto;html=1;entryX=0.5;entryY=0;entryDx=0;entryDy=0;entryPerimeter=0;" edge="1" parent="1" target="AhbAG74jAUV55RDadlkY-7">
          <mxGeometry relative="1" as="geometry">
            <mxPoint x="679" y="669.5" as="sourcePoint" />
          </mxGeometry>
        </mxCell>
        <mxCell id="AhbAG74jAUV55RDadlkY-14" style="edgeStyle=orthogonalEdgeStyle;rounded=0;orthogonalLoop=1;jettySize=auto;html=1;entryX=0.5;entryY=0;entryDx=0;entryDy=0;entryPerimeter=0;" edge="1" parent="1" source="AhbAG74jAUV55RDadlkY-6" target="AhbAG74jAUV55RDadlkY-2">
          <mxGeometry relative="1" as="geometry" />
        </mxCell>
        <mxCell id="AhbAG74jAUV55RDadlkY-6" value="S3&lt;br&gt;" style="outlineConnect=0;dashed=0;verticalLabelPosition=bottom;verticalAlign=top;align=center;html=1;shape=mxgraph.aws3.s3;fillColor=#E05243;gradientColor=none;" vertex="1" parent="1">
          <mxGeometry x="428.75" y="210" width="80.25" height="93" as="geometry" />
        </mxCell>
        <mxCell id="AhbAG74jAUV55RDadlkY-7" value="SNS" style="sketch=0;points=[[0,0,0],[0.25,0,0],[0.5,0,0],[0.75,0,0],[1,0,0],[0,1,0],[0.25,1,0],[0.5,1,0],[0.75,1,0],[1,1,0],[0,0.25,0],[0,0.5,0],[0,0.75,0],[1,0.25,0],[1,0.5,0],[1,0.75,0]];outlineConnect=0;fontColor=#232F3E;gradientColor=#FF4F8B;gradientDirection=north;fillColor=#BC1356;strokeColor=#ffffff;dashed=0;verticalLabelPosition=bottom;verticalAlign=top;align=center;html=1;fontSize=12;fontStyle=0;aspect=fixed;shape=mxgraph.aws4.resourceIcon;resIcon=mxgraph.aws4.sns;" vertex="1" parent="1">
          <mxGeometry x="640" y="730" width="78" height="78" as="geometry" />
        </mxCell>
        <mxCell id="AhbAG74jAUV55RDadlkY-9" style="edgeStyle=orthogonalEdgeStyle;rounded=0;orthogonalLoop=1;jettySize=auto;html=1;" edge="1" parent="1" source="AhbAG74jAUV55RDadlkY-8" target="AhbAG74jAUV55RDadlkY-1">
          <mxGeometry relative="1" as="geometry" />
        </mxCell>
        <mxCell id="AhbAG74jAUV55RDadlkY-8" value="" style="image;aspect=fixed;perimeter=ellipsePerimeter;html=1;align=center;shadow=0;dashed=0;spacingTop=3;image=img/lib/active_directory/laptop_client.svg;" vertex="1" parent="1">
          <mxGeometry x="10" y="401.5" width="45" height="50" as="geometry" />
        </mxCell>
        <mxCell id="AhbAG74jAUV55RDadlkY-18" value="SQS&lt;br&gt;" style="sketch=0;points=[[0,0,0],[0.25,0,0],[0.5,0,0],[0.75,0,0],[1,0,0],[0,1,0],[0.25,1,0],[0.5,1,0],[0.75,1,0],[1,1,0],[0,0.25,0],[0,0.5,0],[0,0.75,0],[1,0.25,0],[1,0.5,0],[1,0.75,0]];outlineConnect=0;fontColor=#232F3E;gradientColor=#FF4F8B;gradientDirection=north;fillColor=#BC1356;strokeColor=#ffffff;dashed=0;verticalLabelPosition=bottom;verticalAlign=top;align=center;html=1;fontSize=12;fontStyle=0;aspect=fixed;shape=mxgraph.aws4.resourceIcon;resIcon=mxgraph.aws4.sqs;" vertex="1" parent="1">
          <mxGeometry x="640" y="592" width="78" height="78" as="geometry" />
        </mxCell>
      </root>
    </mxGraphModel>
  </diagram>
</mxfile>
